<svg xmlns="http://www.w3.org/2000/svg" viewBox="0 0 729.34 440.32"><defs><style>.cls-1{fill:#4697d3;}</style></defs><title>1Recurso 9</title><g id="Capa_2" data-name="Capa 2"><g id="Capa_1-2" data-name="Capa 1"><path class="cls-1" d="M297.41,66.07c-29.6,5.91-51.88,19.55-71.65,27.78-15.2,6.33-28,5.79-44.2,18.1-17.92,13.6-24.75,34.94-29.6,34.56-8.15-.64-7.49-46.36-16-59.68-.86-2.09-1.76-4.08-2.69-6-3.38-6.94-7.66-24-14.83-26.19,0,0-7.92,0-10.94-5.07s-7-14.4-8.81-26.68C97.21,12.81,101.15.23,101.15.23L74,0C78.6,8,88.14,53.75,91.38,71.91s13.85,25.77,18.87,40.21,7.86,27.14,13.22,44.13-1.07,22.11-4.77,39.64,2.36,12.09,4.09,24.78-13.89,31.68-23.57,57.06S70.3,324.09,53.56,344.34,25.35,373.8,21.09,378.46,0,387.38,0,387.38v52.94C9.54,429.6,51.52,414.79,68.8,388c8.36-13,22-23.9,31.34-32.25,4.51-4.06,11.38-11.2,17.73-16.58,6.72-5.69,12.86-9.41,15-5.39,4.15,7.81,23.19,7.16,27.59-12.21,2.09-9.2,4.4-14.91,6.63-18.76,16.73-21,45.81-33,62.37-46.89,19.75-16.62,28.8-40.13,49.92-52.47,26.21-15.32,62.76-28.68,80.46-43.32C381.47,142.22,386,113.15,400.35,98c8.51-9,36.93-20.29,58.55-14l4.17,1.43c23.22,8,27.18,2.53,32.32,10.42s13.6,18.88,26.51,23.27,28.66,15.41,39.33,24.54,38.71,21.66,62.65,28.54,43.54,17,56.44,24,49,19.2,49,19.2v-67s-15.43-7.25-42.41-13.11-32.25-16.1-44.49-21.6S610.81,96.74,601,90,578.08,81.34,567.1,69.6,534.43,45.6,522,37.65s-20.13-7.08-44.2-11.56-34.49,2.15-61,3.6-45,10.8-70.53,21C326.46,58.58,311.1,62.49,297.41,66.07Z"/></g></g></svg>