<svg xmlns="http://www.w3.org/2000/svg" viewBox="0 0 729.34 440.32"><defs><style>.cls-1{fill:#58bcb0;}</style></defs><title>12345Recurso 7</title><g id="Capa_2" data-name="Capa 2"><g id="Capa_1-2" data-name="Capa 1"><path class="cls-1" d="M98.74,22.89c1.86,12.28,5.79,21.64,8.81,26.68s10.94,5.07,10.94,5.07c7.17,2.19,11.45,19.25,14.83,26.19.93,1.92,1.83,3.91,2.69,6a107.5,107.5,0,0,1,5.68,18.67c2.06,9.77,3.65,25.7,6.32,34.22s5.56,7.1,8.77,1.36,13.81-20.46,20.45-25.55,12.33-12.45,29-15.86S238.51,86.79,246.17,83A177.46,177.46,0,0,1,265,75.69c6.37-2.17,13.56-4.41,21-6.53,3.72-1.06,7.51-2.06,11.43-3.09,13.69-3.58,29-7.49,48.86-15.4,25.49-10.18,44.06-19.52,70.53-21s36.89-8.09,61-3.6S509.48,29.7,522,37.65s34.16,20.2,45.14,31.95S591.22,83.31,601,90s29.19,18.1,41.42,23.6,17.51,15.74,44.49,21.6,42.41,13.11,42.41,13.11v67s-36.12-12.25-49-19.2-32.49-17.09-56.44-24-52-19.42-62.65-28.54-26.41-20.15-39.33-24.54-21.38-15.38-26.51-23.27-9.1-2.4-32.32-10.42L458.9,84c-20.76-7-34.15-10.12-58.56-5-26,5.42-58.2,27.36-88.31,40.64s-61.17,21.9-69.45,55.14c-10.17,40.82-23.11,49.95-36.31,65.09s-27.74,32.13-28,43.24c-.31,12.07-5.51,10-11.14,19.68-2.23,3.85-4.54,9.56-6.63,18.76-4.4,19.37-23.44,20-27.59,12.21-2.14-4-8.28-.3-15,5.39-6.35,5.38-13.22,12.52-17.73,16.58-9.3,8.35-23,19.28-31.34,32.25C51.52,414.79,9.54,429.6,0,440.32V387.38s16.82-4.27,21.09-8.92,15.74-13.87,32.47-34.12,36-41.22,45.66-66.61,25.3-44.36,23.57-57.06-7.8-7.26-4.09-24.78,10.13-22.64,4.77-39.64-8.21-29.7-13.22-44.13-15.63-22-18.87-40.21S78.6,8,74,0h27.13S97.21,12.81,98.74,22.89Zm630.6,155.27c-3.73-2.1-7.89-3-12-4.12a6.83,6.83,0,0,0-7.52,3.37,6.17,6.17,0,0,0,1.78,7.41,7,7,0,0,1,2.38,3.43,5.21,5.21,0,0,0,1.2,2,21.88,21.88,0,0,0,9.59,5.64l4.52,1.33ZM102.85,294c-.82-4.1-3.64-5.3-6.47-2.33-3.38,3.55-5.8,7.81-5.94,13,0,.73-.1,1.54.74,1.85a2.05,2.05,0,0,0,2.19-.45c2.62-2.23,5.27-4.42,7.91-6.62,1.17-1,2-2.06,1.75-3.21C102.94,295.18,103,294.6,102.85,294Zm84.67-157.52c-1.19.4-11,7.75-14.45,10.84-2.29,2-5,3.65-6.61,6.41A110.54,110.54,0,0,0,155.62,179c-2,7-2.27,13.34,1.84,19.78,2.48,3.88,5,7.94,5.86,12.67.41,2.18-.11,3.13-2.26,3a29.14,29.14,0,0,0-16.62,4.29c-4.15,2.45-7.25,5.3-8.19,10.29a94.69,94.69,0,0,0-1.15,14.13c-.17,4.71,3.65,8,8.31,7.6,4.07-.34,7.71-2.44,10.64-4.86,4.16-3.43,8.26-7.13,11.33-11.74,2.78-4.16,6.09-7.91,10.56-10.27a176.88,176.88,0,0,0,15.86-10,8.38,8.38,0,0,0,1.95-2,87.7,87.7,0,0,1,15-15.34,31.83,31.83,0,0,0,10.56-16.1c2.56-8.37,4-17,5.59-25.6,1.69-9.3.72-18.42-1.07-27.54-.23-1.13-.66-1.94-1.89-1.93-2.08,0-4.16-.28-6.23.24-4.46,1.11-8.92,2.15-13.39,3.21C197,130.49,188.4,136.23,187.52,136.52Zm-48.6,20.27c3,.92.82-16.18-1.67-21.81s.91-16.12-1.39-22S126,87.92,122.25,87.65s-3.41,15.21.83,22.68c3.49,6.14,7.34,10.08,8.53,17.23S136.52,156.06,138.92,156.79Z"/></g></g></svg>