<svg xmlns="http://www.w3.org/2000/svg" viewBox="0 0 727.83 440.32"><defs><style>.cls-1{fill:#dadada;}</style></defs><title>12345Recurso 8</title><g id="Capa_2" data-name="Capa 2"><g id="Capa_1-2" data-name="Capa 1"><path class="cls-1" d="M727.66,140.28a468.5,468.5,0,0,1-55.6-23.8c-17.15-8.62-34.09-18.29-50.48-27.63l-16.41-9.36c-7.4-4.21-15-8.57-22.31-13.31-3.87-2.52-7.71-5.21-11.42-7.81-2.52-1.75-5.11-3.57-7.69-5.31q-4.15-2.82-8.35-5.72C533.05,32,509.93,16,483.73,12.93a228.36,228.36,0,0,0-107,12.5c-14.18,5.14-33.6,12.18-49.43,16.21-4.11,1-8.33,2.26-12.42,3.43-6.88,2-14,4-21,5.39-17.34,3.45-34.37,9.34-50.84,15-14.93,5.16-30.36,10.49-46,14-29.9,6.72-61.37,7-91.8,7.32C70.1,87.15,33.67,87.52,0,97.87v-.52c33.73-10.37,70.06-10.7,105.25-11,30.41-.29,61.86-.6,91.7-7.31,15.62-3.51,31-8.84,46-14,16.49-5.7,33.54-11.59,50.92-15,7-1.38,14.06-3.42,20.93-5.38,4.09-1.17,8.32-2.38,12.44-3.43,15.8-4,35.21-11.06,49.38-16.2A228.68,228.68,0,0,1,483.79,12.44c26.32,3.11,49.49,19.06,71.89,34.49,2.8,1.92,5.58,3.84,8.35,5.71,2.58,1.75,5.18,3.57,7.69,5.32,3.71,2.6,7.55,5.28,11.41,7.8,7.25,4.73,14.89,9.09,22.28,13.3l16.42,9.36c16.38,9.34,33.32,19,50.45,27.61a466,466,0,0,0,55.55,23.78Z"/><path class="cls-1" d="M0,305.06l9.32-13.12c4.19-5.91,8.53-12,11.27-18.85.72-1.79,1.37-3.7,2-5.55,2-5.79,4-11.79,8.76-15.56a31.37,31.37,0,0,1,8-4.09,46.54,46.54,0,0,0,5.41-2.39c7-3.82,12.42-11.66,15.21-22.06a127.87,127.87,0,0,0,2.84-16c.5-3.73,1-7.58,1.76-11.33,4.52-22.7,11.21-38.28,21.7-61.24,5.25-11.5,3.74-33,.84-47.83l.49-.1c2.91,14.95,4.42,36.53-.88,48.14C76.27,158,69.59,173.55,65.08,196.2c-.74,3.73-1.26,7.58-1.75,11.3a129.52,129.52,0,0,1-2.86,16.07C57.65,234.1,52.16,242.05,45,245.94a46.25,46.25,0,0,1-5.46,2.41,30.59,30.59,0,0,0-7.91,4C27,256.06,25,262,23.05,267.7c-.62,1.85-1.27,3.77-2,5.58-2.77,6.89-7.12,13-11.34,19L0,305.92Z"/><path class="cls-1" d="M64.85,440.32H59.61c63.45-44.6,148.9-108.33,175.91-137.7C253.63,282.93,301,246.37,346.78,211c50.71-39.15,103.15-79.62,106.78-90.64C459.56,102.2,488.63,1,488.93,0h3.12c-.3,1-29.62,103.08-35.64,121.31-3.92,11.89-54.38,50.84-107.79,92.07-45.7,35.28-93,71.76-110.89,91.27C210.56,334.2,128.42,395.64,64.85,440.32Z"/><path class="cls-1" d="M48.55,440.32h-.92c23.45-15.18,53.39-35.23,74.35-54,2-1.76,4.17-3.75,5.34-6.35,1.5-3.34,1.12-7.28.75-11.09-.44-4.61-.9-9.38,2.1-12.87,2-2.35,5.07-3.37,8-4.35l.94-.32a65.63,65.63,0,0,0,35-28.66c4.37-7.5,7.22-15.9,10-24,2.54-7.5,5.17-15.25,9-22.31,5.77-10.65,14.2-19.66,22.36-28.37,4-4.28,8.14-8.7,11.92-13.26,9-10.82,16.41-23.1,23.61-35,8.85-14.58,18-29.66,30-42.12C291.18,147,303.36,138.9,312.83,133c19.79-12.34,42.4-22.83,62-28.78,15.23-4.62,35.82-8.74,47.45-2.09,11.18,6.39,34.72,1.32,35,1.27,3.81-.86,5.05-5.13,6-8.25l.06-.22C473.64,59.59,483.46,25,490.24,0h.52c-6.79,25-16.64,59.73-27,95.07l-.06.22c-1,3.24-2.24,7.67-6.34,8.59-.23.06-24,5.17-35.32-1.32-8.95-5.12-25.66-4.36-47.06,2.13-19.59,6-42.15,16.42-61.9,28.73-9.45,5.89-21.59,14-31.72,24.52-12,12.42-21.1,27.47-29.93,42-7.21,11.89-14.67,24.18-23.66,35-3.78,4.57-7.92,9-11.93,13.28-8.14,8.69-16.55,17.68-22.29,28.27-3.8,7-6.42,14.75-9,22.23-2.76,8.14-5.61,16.56-10,24.11a66.1,66.1,0,0,1-35.31,28.89l-.95.31c-2.88,1-5.85,2-7.79,4.21-2.86,3.32-2.43,7.78-2,12.49.37,3.88.76,7.89-.79,11.34-1.22,2.7-3.57,4.82-5.47,6.52C101.33,405.48,72,425.13,48.55,440.32Z"/></g></g></svg>